<?xml version="1.0" encoding="UTF-8"?>
<!DOCTYPE svg PUBLIC "-//W3C//DTD SVG 1.1//EN" "http://www.w3.org/Graphics/SVG/1.1/DTD/svg11.dtd">
<svg xmlns="http://www.w3.org/2000/svg" version="1.1" width="456px" height="512px" style="shape-rendering:geometricPrecision; text-rendering:geometricPrecision; image-rendering:optimizeQuality; fill-rule:evenodd; clip-rule:evenodd" xmlns:xlink="http://www.w3.org/1999/xlink">
<g><path style="opacity:0.951" fill="#000000" d="M 219.5,-0.5 C 230.167,-0.5 240.833,-0.5 251.5,-0.5C 305.426,11.9707 336.592,45.6374 345,100.5C 345.927,109.145 346.427,117.811 346.5,126.5C 371.836,126.333 397.169,126.5 422.5,127C 432.885,128.722 438.385,134.888 439,145.5C 442.871,182.171 446.704,218.838 450.5,255.5C 437.5,255.5 424.5,255.5 411.5,255.5C 408.573,225.16 405.573,194.826 402.5,164.5C 383.833,164.5 365.167,164.5 346.5,164.5C 346.94,184.879 346.44,205.212 345,225.5C 342.224,234.228 336.224,238.228 327,237.5C 317.776,238.228 311.776,234.228 309,225.5C 307.548,205.221 307.048,184.887 307.5,164.5C 259.5,164.5 211.5,164.5 163.5,164.5C 163.952,184.887 163.452,205.221 162,225.5C 159.224,234.228 153.224,238.228 144,237.5C 134.776,238.228 128.776,234.228 126,225.5C 124.56,205.212 124.06,184.879 124.5,164.5C 105.833,164.5 87.1667,164.5 68.5,164.5C 59.2958,261.542 49.6292,358.542 39.5,455.5C 105.167,455.5 170.833,455.5 236.5,455.5C 236.5,468.167 236.5,480.833 236.5,493.5C 162.499,493.667 88.4992,493.5 14.5,493C 7.16845,492.022 2.16845,488.188 -0.5,481.5C -0.5,474.5 -0.5,467.5 -0.5,460.5C 11.3131,353.708 22.4798,246.708 33,139.5C 36.0182,133.143 40.8515,128.977 47.5,127C 73.1645,126.5 98.8312,126.333 124.5,126.5C 122.84,86.0164 136.506,51.8498 165.5,24C 181.69,11.7365 199.69,3.5698 219.5,-0.5 Z M 231.5,37.5 C 267.005,38.1666 290.838,55.1666 303,88.5C 306.886,100.869 308.386,113.535 307.5,126.5C 259.5,126.5 211.5,126.5 163.5,126.5C 160.784,92.7443 173.117,66.2443 200.5,47C 210.191,41.2661 220.524,38.0994 231.5,37.5 Z"/></g>
<g><path style="opacity:0.945" fill="#000000" d="M 455.5,383.5 C 455.5,388.5 455.5,393.5 455.5,398.5C 449.701,408.894 441.034,412.394 429.5,409C 426.228,407.392 423.228,405.392 420.5,403C 408,390.5 395.5,378 383,365.5C 382.667,409.5 382.333,453.5 382,497.5C 380.172,503.485 376.672,508.152 371.5,511.5C 366.167,511.5 360.833,511.5 355.5,511.5C 350.593,508.379 347.093,504.046 345,498.5C 344.667,453.833 344.333,409.167 344,364.5C 329.833,378.667 315.667,392.833 301.5,407C 287.881,413.795 278.047,410.295 272,396.5C 270.287,388.933 271.953,382.266 277,376.5C 301.14,352.36 325.306,328.194 349.5,304C 357.664,297.487 366.331,296.82 375.5,302C 401.333,327.833 427.167,353.667 453,379.5C 453.608,381.066 454.442,382.4 455.5,383.5 Z"/></g>
</svg>
